<svg width="51" height="50" viewBox="0 0 51 50" fill="none" xmlns="http://www.w3.org/2000/svg">
<path d="M41.5695 20.07C41.2196 9.11059 32.3392 0.266489 21.3429 0C21.0597 0 20.8264 0.216522 20.8264 0.499667L20.8098 7.86143C20.8098 8.22785 20.5265 8.51099 20.16 8.52765C9.19696 8.86076 0.349906 17.7548 0.0833282 28.7475C0.0833282 29.0306 0.299923 29.2638 0.583162 29.2638L7.93071 29.2805C8.29726 29.2805 8.58049 29.5636 8.59716 29.93C8.94704 40.8894 17.8441 49.7335 28.8237 50C29.107 50 29.3402 49.7835 29.3402 49.5003L29.3569 42.1386C29.3569 41.7722 29.6401 41.489 30.0067 41.4724C40.9697 41.1226 49.8167 32.2285 50.0833 21.2525C50.0833 20.9694 49.8667 20.7362 49.5835 20.7362L42.2359 20.7195C41.8694 20.7195 41.5862 20.4364 41.5695 20.07ZM28.6238 41.4224C22.3926 41.056 17.3942 35.9927 17.161 29.7302C17.1443 29.4637 16.9277 29.2472 16.6611 29.2472L9.33025 29.2305C8.94704 29.2305 8.64714 28.9141 8.6638 28.531C9.03034 22.3018 14.0953 17.3051 20.3599 17.072C20.6265 17.0553 20.8431 16.8388 20.8431 16.5723L20.8597 9.22718C20.8597 8.8441 21.1763 8.5443 21.5595 8.56096C27.7908 8.92738 32.7891 13.9907 33.0223 20.2532C33.039 20.5197 33.2556 20.7362 33.5222 20.7362L40.8531 20.7528C41.2363 20.7528 41.5362 21.0693 41.5195 21.4524C41.153 27.8481 35.8381 32.928 29.3569 32.928L29.3402 40.7562C29.3236 41.1392 29.007 41.439 28.6238 41.4224Z" fill="#E60000"/>
</svg>
